{"title":"Albert Camus: Un Combat contre L'absurde HDTV 720 Legendado PT-B","uid":13151610,"size":2680326254,"categoryP":"video","categoryS":"hd___tv_shows","magnet":"?xt=urn:btih:88d3aef584577d06f8fba49ba72cc1fa706f8aa1&amp;dn=Albert+Camus%3A+Un+Combat+contre+L%27absurde+HDTV+720+Legendado+PT-B&amp;tr=udp%3A%2F%2Ftracker.leechers-paradise.org%3A6969&amp;tr=udp%3A%2F%2Fzer0day.ch%3A1337&amp;tr=udp%3A%2F%2Fopen.demonii.com%3A1337&amp;tr=udp%3A%2F%2Ftracker.coppersurfer.tk%3A6969&amp;tr=udp%3A%2F%2Fexodus.desync.com%3A6969","seeders":7,"leechers":1,"uploader":null,"files":1,"time":1452065714,"description":"Audio: French\r\nLegendas/subtitles: Português (hardsubed)\r\n\r\n=========================================\r\n\r\nAlbert Camus was a child of the popular districts of Algiers, son of an illiterate mother, now, to his confusion, the youngest Nobel Prize French literature. Footballer hit by tuberculosis, Emeritus dancer ardent swimmer, seductive style old dark gentleman, early destroyer of all totalitarianisms, of all conventions against intellectual left ossified who forgave not him as many faces in a complex man &quot;Solidarity and lonely,&quot; as he liked to recall. More than in his novels became classics, corseted in a write gifted student, the real Camus finds himself in his Notebooks and in his final book, but death prevented him from completing, &quot;The First Man&quot;. With the testimony of Olivier Todd, Roger Quillot, Christiane Faure, Francis Jeanson, Robert Gallimard, and his children Jean and Catherine Camus.\r\n\r\n======================================\r\n\r\nAlbert Camus foi criança nos bairros populares de Argel, filho de uma mãe iletrada, que se tornaria o mais jovem Prêmio Nobel Francês de literatura. Jogador de futebol acometido de tuberculose, bom dançarino e ardente nadador, estilo sedutor de antigos cavalheiros, jovem destruidor de todos os totalitarismos, de todas as convenções, contrário ao intelectualismo de esquerda fossilizado que jamais lhe perdoou as muitas facetas de homem complexo, &quot;Solidário e solitário&quot;, como costumava dizer. Embora muitos dos seus romances se tornassem clássicos, concebidos quando ainda era um jovem escritor, o verdadeiro Camus só encontramos em suas Cartas e em seu último livro que a morte lhe impediu de terminar, &quot;O Primeiro Homem&quot;. Testemunhos de Olivier Todd, Roger Quillot, Christiane Faure, Francis Jeason, Robert Gallimard e seus filhos Jean e Catherine Camus.\r\n\r\n========================================\r\n\r\nVideo\r\nID                             : 1\r\nFormat                         : AVC\r\nFormat/Info                    : Advanced Video Codec\r\nFormat profile                 :   \r\nFormat settings, CABAC         : Yes\r\nFormat settings, ReFrames      : 4 frames\r\nCodec ID                       : V_MPEG4/ISO/AVC\r\nDuration                       : 1h 24mn\r\nBit rate                       : 3 854 Kbps\r\nWidth                          : 1 280 pixels\r\nHeight                         : 720 pixels\r\nDisplay aspect ratio           : 16:9\r\nFrame rate mode                : Constant\r\nFrame rate                     : 59.880 fps\r\nOriginal frame rate            : 59.940 fps\r\nColor space                    : YUV\r\nChroma subsampling             : 4:2:0\r\nBit depth                      : 8 bits\r\nScan type                      : Progressive\r\nBits/(Pixel*Frame)             : 0.070\r\nStream size                    : 2.22 GiB (89%)\r\n\r\n\r\nAudio\r\nID                             : 2\r\nFormat                         : AC-3\r\nFormat/Info                    : Audio Coding 3\r\nMode extension                 : CM (complete main)\r\nFormat settings, Endianness    : Big\r\nCodec ID                       : A_AC3\r\nDuration                       : 1h 24mn\r\nBit rate mode                  : Constant\r\nBit rate                       : 384 Kbps\r\nChannel(s)                     : 2 channels\r\nChannel positions              : Front: L R\r\nSampling rate                  : 48.0 KHz\r\nBit depth                      : 16 bits\r\nCompression mode               : Lossy\r\nDelay relative to video        : 12ms\r\nStream size                    : 231 MiB (9%)\r\nLanguage                       : French\r\nDefault                        : Yes\r\nForced                         : No","torrent":{"xt":"urn:btih:88d3aef584577d06f8fba49ba72cc1fa706f8aa1","amp;dn":"Albert+Camus%3A+Un+Combat+contre+L%27absurde+HDTV+720+Legendado+PT-B","amp;tr":["udp%3A%2F%2Ftracker.leechers-paradise.org%3A6969","udp%3A%2F%2Fzer0day.ch%3A1337","udp%3A%2F%2Fopen.demonii.com%3A1337","udp%3A%2F%2Ftracker.coppersurfer.tk%3A6969","udp%3A%2F%2Fexodus.desync.com%3A6969"],"infoHash":"88d3aef584577d06f8fba49ba72cc1fa706f8aa1","infoHashBuffer":{"type":"Buffer","data":[136,211,174,245,132,87,125,6,248,251,164,155,167,44,193,250,112,111,138,161]},"announce":[],"urlList":[]}}